HIERARCHY
ROOT Hips
{
	OFFSET 0.00000 0.00000 0.00000
	CHANNELS 6 Xposition Yposition Zposition Yrotation Zrotation Xrotation 
	JOINT Lumbar
	{
		OFFSET 0 0 0
		CHANNELS 3 Zrotation Xrotation Yrotation
		JOINT Neck
		{
			OFFSET 0.00 0.2701 0.00
			CHANNELS 3 Zrotation Xrotation Yrotation
			End Site
			{
				OFFSET 0.00 0.1379 0.00
			}
		}
		JOINT RightShoulder
		{
			OFFSET 0.0119 0.2289 0.1181
			CHANNELS 3 Zrotation Xrotation Yrotation
			JOINT RightElbow
			{
				OFFSET 0.00 -0.1475 0.00
				CHANNELS 2 Zrotation Yrotation
				JOINT RightWrist
				{
					OFFSET 0.00 -0.1605 0.00
					CHANNELS 2 Zrotation Xrotation
					End Site
					{
						OFFSET 0.0040 -0.1068 0.0006
					}
				}
			}
		}
		JOINT LeftShoulder
		{
			OFFSET 0.0119 0.2289 -0.1181
			CHANNELS 3 Zrotation Xrotation Yrotation
			JOINT LeftElbow
			{
				OFFSET 0.00 -0.1475 0.00
				CHANNELS 2 Zrotation Yrotation
				JOINT LeftWrist
				{
					OFFSET 0.00 -0.1605 0.00
					CHANNELS 2 Zrotation Xrotation
					End Site
					{
						OFFSET 0.0040 -0.1068 -0.0006
					}
				}
			}
		}
	}
	JOINT RightHip
	{
		OFFSET 0.0316 -0.0424 0.0458
		CHANNELS 3 Zrotation Xrotation Yrotation
		JOINT RightKnee
		{
			OFFSET 0.00 -0.2438 0.00
			CHANNELS 1 Zrotation
			JOINT RightAnkle
			{
				OFFSET 0.00 -0.2449 0.00
				CHANNELS 3 Zrotation Xrotation Yrotation
				End Site
				{
					OFFSET 0.1237 -0.0542 0.0051
				}
			}
		}
	}
	JOINT LeftHip
	{
		OFFSET 0.0316 -0.0424 -0.0458
		CHANNELS 3 Zrotation Xrotation Yrotation
		JOINT LeftKnee
		{
			OFFSET 0.00 -0.2438 0.00
			CHANNELS 1 Zrotation
			JOINT LeftAnkle
			{
				OFFSET 0.00 -0.2449 0.00
				CHANNELS 3 Zrotation Xrotation Yrotation
				End Site
				{
					OFFSET 0.1237 -0.0542 -0.0051
				}
			}
		}
	}
}
MOTION
Frames: 19
Frame Time: 0.02
-0.00068 -0.00011 -2e-05 -155.0556 -38.73101 -1.54765 48.72129 1.57884 -6.38892 2.43888 0.98769 -0.83938 -16.5825 -10.05496 -8.99475 26.98419 88.22816 2.7662 1.82146 -20.4701 5.38208 16.48095 44.77607 -150.27003 29.23973 -11.46401 41.69247 0.61912 -10.11118 -19.15761 -6.11545 -1.72872 -3.04733 44.75798 1.24159 5.49603 -24.93513 -6.21939 2.19094 3.25932
-0.00102 -0.00012 0.00018 -155.05729 -38.66351 -1.54663 48.80334 1.58978 -6.31434 2.02551 0.97795 -0.84125 -17.61854 -9.99685 -9.14389 27.15733 88.38558 2.8685 1.81562 -22.12271 5.47838 16.61997 44.64467 -148.65743 28.88673 -11.00309 41.55728 0.56305 -10.42925 -19.15204 -6.12678 -1.69153 -3.03108 44.62377 1.31298 5.82731 -24.92945 -6.22228 2.14869 3.23985
-0.00137 -0.00013 0.00038 -155.05889 -38.59616 -1.5456 48.88518 1.60069 -6.24001 1.61328 0.96819 -0.84311 -18.6515 -9.93889 -9.29243 27.33 88.54269 2.9706 1.80981 -23.77074 5.57457 16.75782 44.51356 -147.04961 28.53498 -10.54352 41.42243 0.50715 -10.74628 -19.14648 -6.13807 -1.65446 -3.0149 44.48988 1.38417 6.15773 -24.92378 -6.22517 2.10654 3.22043
-0.00171 -0.00014 0.00058 -155.06056 -38.52886 -1.54457 48.96697 1.6116 -6.16566 1.20114 0.95846 -0.84498 -19.6844 -9.88096 -9.44109 27.50262 88.69967 3.07261 1.80399 -25.41841 5.67053 16.89647 44.38255 -145.44223 28.18321 -10.08405 41.28764 0.45125 -11.06338 -19.14093 -6.14937 -1.61739 -2.9987 44.35607 1.45535 6.48803 -24.91811 -6.22805 2.06441 3.20101
-0.00206 -0.00015 0.00078 -155.06236 -38.46143 -1.54356 49.04896 1.62253 -6.09105 0.78793 0.94877 -0.84684 -20.72025 -9.82289 -9.59038 27.67571 88.85686 3.17479 1.79816 -27.07029 5.76672 17.03608 44.25128 -143.82936 27.82981 -9.62313 41.15256 0.39519 -11.38148 -19.13536 -6.16071 -1.58019 -2.98245 44.22196 1.5267 6.81909 -24.91244 -6.23094 2.0222 3.18156
-0.0024 -0.00016 0.00098 -155.06351 -38.39426 -1.54249 49.13049 1.6334 -6.01731 0.37781 0.93887 -0.8487 -21.747 -9.76515 -9.73733 27.84747 89.01376 3.27669 1.79239 -28.71006 5.86302 17.16998 44.12052 -142.23179 27.48136 -9.16635 41.01819 0.33965 -11.69625 -19.12985 -6.1719 -1.54341 -2.96639 44.08856 1.59756 7.14814 -24.90679 -6.23382 1.9802 3.16221
-0.00274 -0.00016 0.00118 -155.06598 -38.32664 -1.54154 49.21285 1.64439 -5.94191 -0.03812 0.9294 -0.85057 -22.79117 -9.7068 -9.88889 28.0217 89.17115 3.37906 1.7865 -30.37272 5.95848 17.31647 43.98887 -140.60738 27.1242 -8.70211 40.88252 0.28309 -12.01747 -19.12421 -6.18338 -1.50581 -2.94996 43.95386 1.66935 7.48093 -24.90109 -6.23672 1.93781 3.14266
-0.00309 -0.00017 0.00138 -155.06722 -38.25944 -1.54047 49.29444 1.65527 -5.86802 -0.4486 0.91953 -0.85243 -23.81884 -9.64903 -10.03608 28.1937 89.32798 3.48096 1.78072 -32.01367 6.05563 17.44905 43.85807 -139.00371 26.77348 -8.24409 40.74807 0.22751 -12.33255 -19.1187 -6.19459 -1.46899 -2.93388 43.82039 1.74025 7.81015 -24.89544 -6.2396 1.89578 3.1233
-0.00342 -0.00018 0.00157 -155.06701 -38.19271 -1.5393 49.37511 1.66602 -5.79605 -0.85301 0.90918 -0.85428 -24.8285 -9.59191 -10.17841 28.36284 89.48461 3.58249 1.77508 -33.63125 6.15131 17.57369 43.72813 -137.44059 26.43684 -7.79608 40.61498 0.17298 -12.64101 -19.11332 -6.20548 -1.43302 -2.91819 43.68826 1.81022 8.13565 -24.88984 -6.24247 1.85416 3.10416
-0.00379 -0.00019 0.00178 -155.07531 -38.12312 -1.53882 49.46115 1.67753 -5.71325 -1.29413 0.90163 -0.85621 -25.94829 -9.53087 -10.35014 28.54806 89.64388 3.68677 1.76864 -35.39289 6.24481 17.77127 43.59269 -135.68983 26.03785 -7.29769 40.47366 0.11197 -12.99023 -19.10712 -6.21826 -1.39184 -2.90012 43.54793 1.88601 8.48451 -24.88392 -6.24542 1.8101 3.0837
-0.0041 -0.0002 0.00197 -155.06556 -38.05966 -1.53684 49.53583 1.68741 -5.65317 -1.65663 0.88812 -0.85795 -26.8315 -9.47821 -10.45895 28.69955 89.79658 3.78484 1.76387 -36.84427 6.34969 17.79761 43.46923 -134.30591 25.75849 -6.90101 40.34998 0.06491 -13.25176 -19.10267 -6.22701 -1.36187 -2.88718 43.4252 1.94924 8.7828 -24.8787 -6.24819 1.77125 3.06607
-0.00426 -0.00021 0.00212 -155.00633 -38.01245 -1.53115 49.57924 1.693 -5.65707 -1.81066 0.85835 -0.85914 -27.09361 -9.44793 -10.40032 28.75627 89.94001 3.8694 1.76384 -37.48661 6.42843 17.49616 43.37559 -134.17987 25.90898 -6.82423 40.27283 0.05418 -13.28467 -19.10309 -6.22508 -1.36096 -2.88766 43.34884 1.98003 8.95184 -24.87529 -6.25057 1.74611 3.05586
-0.00436 -0.00022 0.00226 -154.92893 -37.97152 -1.52387 49.61117 1.6969 -5.68353 -1.8842 0.82251 -0.86013 -27.11257 -9.42627 -10.27718 28.77964 90.07555 3.94721 1.76547 -37.80846 6.52775 16.9997 43.29442 -134.37812 26.16128 -6.8424 40.21376 0.05776 -13.22773 -19.10527 -6.21906 -1.37156 -2.8934 43.29055 1.99788 9.0685 -24.87262 -6.25276 1.7263 3.04852
-0.00448 -0.00023 0.0024 -154.85983 -37.92809 -1.51708 49.6485 1.70148 -5.69846 -1.99013 0.78943 -0.86121 -27.22501 -9.40099 -10.18065 28.81959 90.20857 4.02568 1.76615 -38.25074 6.65707 16.49548 43.20965 -134.26064 26.29995 -6.78995 40.1476 0.05618 -13.20353 -19.10661 -6.21467 -1.37803 -2.89722 43.2252 2.02029 9.20266 -24.86969 -6.25497 1.70441 3.04007
-0.00462 -0.00024 0.00255 -154.79063 -37.88313 -1.51134 49.68537 1.70649 -5.7185 -2.11448 0.75654 -0.86225 -27.41052 -9.37417 -10.09698 28.85302 90.36601 4.11383 1.7675 -38.80341 6.62646 16.3842 43.11665 -134.84412 26.72101 -6.852 40.07662 0.04927 -13.2116 -19.10809 -6.21118 -1.38008 -2.89916 43.15488 2.04808 9.36262 -24.86642 -6.25745 1.68107 3.03084
-0.00471 -0.00025 0.00268 -154.7172 -37.8429 -1.50296 49.72008 1.71015 -5.73367 -2.18023 0.72157 -0.86335 -27.38403 -9.353 -9.96927 28.89268 90.47238 4.1808 1.76805 -39.04448 6.92609 15.42528 43.04315 -134.05753 26.58076 -6.70014 40.02012 0.05648 -13.13329 -19.10971 -6.20491 -1.39381 -2.90617 43.0994 2.06179 9.45735 -24.86405 -6.25933 1.66201 3.02389
-0.00469 -0.00026 0.00274 -154.63779 -37.8138 -1.48814 49.75489 1.71092 -5.72627 -2.11369 0.68423 -0.86464 -26.85038 -9.34159 -9.75346 28.95303 90.43256 4.18803 1.76548 -38.5526 8.19874 12.02818 43.02602 -129.30404 24.84607 -5.91782 39.99804 0.1023 -12.82018 -19.11129 -6.19143 -1.43905 -2.9268 43.07879 2.03833 9.37704 -24.86383 -6.25956 1.65361 3.02285
-0.00461 -0.00026 0.00277 -154.55457 -37.78938 -1.47061 49.78721 1.71032 -5.71386 -1.98889 0.64461 -0.86601 -26.10809 -9.33606 -9.49284 29.0216 90.34786 4.17616 1.76293 -37.74878 9.79041 7.81234 43.02733 -123.18687 22.54989 -4.92126 39.99022 0.16127 -12.42653 -19.11295 -6.17538 -1.49528 -2.95221 43.07289 2.00143 9.23437 -24.86453 -6.25921 1.64929 3.02396
-0.00455 -0.00027 0.00281 -154.47226 -37.763 -1.45402 49.81866 1.71006 -5.70606 -1.88471 0.60482 -0.86736 -25.44941 -9.33055 -9.2404 29.08959 90.28206 4.1731 1.75975 -37.0562 11.19293 4.06618 43.0162 -117.75346 20.51941 -4.03196 39.97651 0.21214 -12.08195 -19.11457 -6.16085 -1.54509 -2.97482 43.06123 1.97161 9.12531 -24.8649 -6.25918 1.64303 3.0239
